<?xml version="1.0" encoding="UTF-8" standalone="no"?>
<!-- Created with Inkscape (http://www.inkscape.org/) -->

<svg
   xmlns:dc="http://purl.org/dc/elements/1.1/"
   xmlns:cc="http://creativecommons.org/ns#"
   xmlns:rdf="http://www.w3.org/1999/02/22-rdf-syntax-ns#"
   xmlns:svg="http://www.w3.org/2000/svg"
   xmlns="http://www.w3.org/2000/svg"
   version="1.1"
   width="94.931122"
   height="63.491249"
   id="svg2837"
   xml:space="preserve"><metadata
     id="metadata2843"><rdf:RDF><cc:Work
         rdf:about=""><dc:format>image/svg+xml</dc:format><dc:type
           rdf:resource="http://purl.org/dc/dcmitype/StillImage" /><dc:title></dc:title></cc:Work></rdf:RDF></metadata><defs
     id="defs2841"><clipPath
       id="clipPath2855"><path
         d="M 0,507.93 0,0 l 2383.44,0 0,507.93 -2383.44,0 z"
         id="path2857" /></clipPath></defs><g
     transform="matrix(1.25,0,0,-1.25,0,63.49125)"
     id="g2847"><path
       d="m 54.534,34.6602 8.7726,0 c 2.9008,0 4.961,0.5402 6.1805,1.6203 1.2188,1.0797 1.8293,2.6004 1.8293,4.5593 0,1.42 -0.3594,2.6348 -1.0762,3.6465 -0.7187,1.0098 -1.6636,1.6778 -2.8355,2.002 -0.7563,0.2 -2.1524,0.3008 -4.1899,0.3008 l -8.6808,0 0,-12.1289 z m -4.4899,-17.7997 0,33.9325 12.8,0 c 2.2536,0 3.9739,-0.1075 5.1618,-0.3231 1.666,-0.2785 3.0625,-0.8066 4.189,-1.5859 1.1274,-0.7793 2.0336,-1.8711 2.7199,-3.2754 0.6872,-1.4047 1.0301,-2.9473 1.0301,-4.6289 0,-2.8859 -0.9179,-5.3281 -2.7535,-7.3262 -1.8371,-1.998 -5.1543,-2.998 -9.9531,-2.998 l -8.7043,0 0,-13.795 -4.4899,0"
       id="path2859"
       style="fill:#59c134;fill-opacity:1;fill-rule:nonzero;stroke:none" /><path
       d="m 12.5566,41.8273 c 0,-2.7609 -2.1269,-5.0003 -4.74996,-5.0003 -2.62305,0 -4.75,2.2394 -4.75,5.0003 0,2.7618 2.12695,5 4.75,5 2.62306,0 4.74996,-2.2382 4.74996,-5"
       id="path2873"
       style="fill:#59c134;fill-opacity:1;fill-rule:nonzero;stroke:none" /><path
       d="M 4.3418,42.4766 3.31719,39.9699 1.6582,42.1105 0,44.25 2.68359,44.6172 5.36523,44.9832 4.3418,42.4766"
       id="path2875"
       style="fill:#59c134;fill-opacity:1;fill-rule:nonzero;stroke:none" /><path
       d="m 30.6309,4.25898 c 0.0078,-0.68671 0.0144,-1.3457 0.0214,-1.99218 l 0.9864,0 c 0.4441,5.97812 1.7957,11.2664 5.0625,12.4117 5.959,2.0879 12.9355,4.8164 4.7011,4.8164 -12.1269,0 -31.1347,8.8637 -16.4511,22.0852 8.6738,7.8117 29.2793,8.5265 21.1523,8.9461 C 39.7051,50.8566 -4.25977,45.8723 5.16992,30.0488 14.2285,14.8477 30.4414,21.6543 30.6309,4.25898"
       id="path2877"
       style="fill:#59c134;fill-opacity:1;fill-rule:nonzero;stroke:none" /><path
       d="m 27.2141,3.34766 4.3511,-1.08086 2.72,0.81836 -6.6993,-2.619144"
       id="path2879"
       style="fill:none;stroke:#59c134;stroke-width:1;stroke-linecap:butt;stroke-linejoin:miter;stroke-miterlimit:4;stroke-opacity:1;stroke-dasharray:none" /></g></svg>